# xmcd
#
# Track frame offsets:
#	150
#	16912
#	36637
#
# Disc length: 807 seconds
#
# Revision: 0
# Processed by: cddbd v1.5.1PL0 Copyright (c) Steve Scherf et al.
# Submitted via: dBpowerAMP V4.0
#
DISCID=1f032503
DTITLE=Cowboy Junkies - Ooh Las Vegas
DYEAR=1999
DGENRE=Alternative
TTITLE0=Vegas Edit (no guitar solo)
TTITLE1=Vegas Edit (full solo)
TTITLE2=LP Version
EXTD=
EXTT0=
EXTT1=
EXTT2=
PLAYORDER=
